<svg width="83" height="73" xmlns="http://www.w3.org/2000/svg">
 <!-- Created with Method Draw - http://github.com/duopixel/Method-Draw/ -->
 <g>
  <title>background</title>
  <rect fill="#fff" id="canvas_background" height="75" width="85" y="-1" x="-1"/>
 </g>
 <g>
  <title>Layer 1</title>
  <path fill="#f2f2f2" fill-rule="evenodd" d="m26.20001,0l-1.5,4.7l-6.5,-1.3l-0.7,5.5l-2.1,6.2l-3.2,3.2l-2.3,4.8l-0.5,2.6l-2.6,1.8l-1.4,6.7l0,0.7l0.2,5l-0.8,2l-3,0.1l-1.8,3.6l3.4,0.5l2.9,3.1l1,2.5l2.6,1.5l3.5,6.9l2.9,1.1l0,3.6l2,2.1l3.9,0l7.2,5.4l1.8,0l1.3,-0.1l1.2,0.7l3.8,0.5l1.6,-2.7l5.1,-2.6l2.3,2.1l3.8,0l1.5,-2l3.6,-0.1l4.9,-4.5l7.4,-0.3l15.4,-19.1l-4.8,0.1l-18.5,-7.6l-2.2,-2.2l-2.1,-3.1l-2.2,-3.5l1.1,-2.3l-1.3,-1.1l-1.3,0.5l-3.1,-0.1l-0.2,-2l-0.5,-1.7l1.8,-3l1.9,-2.8l-2,-2.1l-2.5,-3.7l-2.5,-2.1l-1.6,-2.2l-4.9,-2.5l-3.9,-0.1l-1.4,-1.3l-3.2,1.5l-3.5,-2.9z" id="ET"/>
 </g>
</svg>